<svg width="32" height="33" viewBox="0 0 32 33" fill="none" xmlns="http://www.w3.org/2000/svg">
<g id="facebook 1" clip-path="url(#clip0_3762_108886)">
<g id="Group">
<g id="Group_2">
<g id="Group_3">
<path id="Vector" d="M13.7778 12.5556V14.3334H12V17H13.7778V25H17.3333V17H19.6978L20 14.3334H17.3333V12.7778C17.3333 12.0578 17.4044 11.6756 18.5155 11.6756H20V9H17.6178C14.7734 9.00008 13.7778 10.3334 13.7778 12.5556Z" fill="#D2926A"/>
<path id="Vector_2" d="M16 0.735352C7.16344 0.735352 0 7.89879 0 16.7354C0 25.5719 7.16344 32.7354 16 32.7354C24.8366 32.7354 32 25.5719 32 16.7354C32 7.89879 24.8366 0.735352 16 0.735352ZM16 31.2808C7.96675 31.2808 1.45456 24.7686 1.45456 16.7354C1.45456 8.7021 7.96675 2.18991 16 2.18991C24.0332 2.18991 30.5454 8.7021 30.5454 16.7354C30.5454 24.7686 24.0332 31.2808 16 31.2808Z" fill="#D2926A"/>
</g>
</g>
</g>
</g>
<defs>
<clipPath id="clip0_3762_108886">
<rect width="32" height="32" fill="white" transform="translate(0 0.735352)"/>
</clipPath>
</defs>
</svg>
