<svg width="32" height="33" viewBox="0 0 32 33" fill="none" xmlns="http://www.w3.org/2000/svg">
<g id="instagram 1" clip-path="url(#clip0_3762_108892)">
<g id="Group">
<g id="Group_2">
<g id="Group_3">
<path id="Vector" d="M16 0.735352C7.16344 0.735352 0 7.89879 0 16.7354C0 25.5719 7.16344 32.7354 16 32.7354C24.8366 32.7354 32 25.5719 32 16.7354C32 7.89879 24.8366 0.735352 16 0.735352ZM16 31.2808C7.96675 31.2808 1.45456 24.7686 1.45456 16.7354C1.45456 8.7021 7.96675 2.18991 16 2.18991C24.0332 2.18991 30.5454 8.7021 30.5454 16.7354C30.5454 24.7686 24.0332 31.2808 16 31.2808Z" fill="#D2926A"/>
<path id="Vector_2" d="M20.8 9H11.2C9.43269 9 8 10.4327 8 12.2V21.8C8 23.5673 9.43269 25 11.2 25H20.8C22.5673 25 24 23.5673 24 21.8V12.2001C24.0001 10.4327 22.5674 9 20.8 9ZM19.2 11.4H21.6V13.8H19.2V11.4ZM16 13.8001C17.7673 13.8001 19.2 15.2328 19.2 17.0001C19.2 18.7674 17.7673 20.2001 16 20.2001C14.2327 20.2001 12.8 18.7674 12.8 17.0001C12.8 15.2328 14.2327 13.8001 16 13.8001ZM22.4 21.8001C22.4 22.6837 21.6837 23.4001 20.8 23.4001H11.2C10.3163 23.4001 9.59996 22.6837 9.59996 21.8001V16.2H11.2799C10.7995 18.8071 12.5234 21.31 15.1305 21.7905C17.7376 22.271 20.2405 20.547 20.721 17.94C20.7782 17.63 20.8046 17.3152 20.8 17.0001C20.796 16.7316 20.7693 16.464 20.72 16.2001H22.4V21.8001H22.4Z" fill="#D2926A"/>
</g>
</g>
</g>
</g>
<defs>
<clipPath id="clip0_3762_108892">
<rect width="32" height="32" fill="white" transform="translate(0 0.735352)"/>
</clipPath>
</defs>
</svg>
