<svg width="32" height="33" viewBox="0 0 32 33" fill="none" xmlns="http://www.w3.org/2000/svg">
<g id="linkedin (1) 1" clip-path="url(#clip0_3762_108898)">
<g id="Group">
<g id="Group_2">
<g id="Group_3">
<path id="Vector" d="M16 0.735352C7.16344 0.735352 0 7.89879 0 16.7354C0 25.5719 7.16344 32.7354 16 32.7354C24.8366 32.7354 32 25.5719 32 16.7354C32 7.89879 24.8366 0.735352 16 0.735352ZM16 31.2808C7.96675 31.2808 1.45456 24.7686 1.45456 16.7354C1.45456 8.7021 7.96675 2.18991 16 2.18991C24.0332 2.18991 30.5454 8.7021 30.5454 16.7354C30.5454 24.7686 24.0332 31.2808 16 31.2808Z" fill="#D2926A"/>
<g id="Group 770565">
<path id="Vector_2" d="M10.75 13.5C11.7165 13.5 12.5 12.7165 12.5 11.75C12.5 10.7835 11.7165 10 10.75 10C9.7835 10 9 10.7835 9 11.75C9 12.7165 9.7835 13.5 10.75 13.5Z" fill="#D2926A"/>
<path id="Vector_3" d="M12.4999 14.3748H9V23.9997H12.4999V14.3748Z" fill="#D2926A"/>
<path id="Vector_4" d="M20.6904 14.375C18.0654 14.375 17.7504 15.9325 17.7504 15.9325V14.375H14.2505V23.9999H17.7504V18.75C17.7504 18.75 17.7504 17 19.2379 17C20.1129 17 20.3754 17.7787 20.3754 18.75V23.9999H23.8753V18.75C23.8753 16.0112 22.6854 14.375 20.6904 14.375Z" fill="#D2926A"/>
</g>
</g>
</g>
</g>
</g>
<defs>
<clipPath id="clip0_3762_108898">
<rect width="32" height="32" fill="white" transform="translate(0 0.735352)"/>
</clipPath>
</defs>
</svg>
