<svg width="32" height="33" viewBox="0 0 32 33" fill="none" xmlns="http://www.w3.org/2000/svg">
<g id="linkedin (1) 3" clip-path="url(#clip0_6166_78029)">
<g id="Group">
<g id="Group_2">
<g id="Group_3">
<path id="Vector" d="M16 0.735352C7.16344 0.735352 0 7.89879 0 16.7354C0 25.5719 7.16344 32.7354 16 32.7354C24.8366 32.7354 32 25.5719 32 16.7354C32 7.89879 24.8366 0.735352 16 0.735352ZM16 31.2808C7.96675 31.2808 1.45456 24.7686 1.45456 16.7354C1.45456 8.7021 7.96675 2.18991 16 2.18991C24.0332 2.18991 30.5454 8.7021 30.5454 16.7354C30.5454 24.7686 24.0332 31.2808 16 31.2808Z" fill="#D2926A"/>
<g id="&#240;&#159;&#166;&#134; icon &#34;Snapchat Ghost&#34;">
<path id="Vector_2" d="M23.9809 21.5431C23.8077 21.9472 23.0755 22.2441 21.7418 22.4512C21.6732 22.5438 21.6163 22.9393 21.5255 23.2475C21.4715 23.4325 21.3386 23.5423 21.1224 23.5423L21.1125 23.5421C20.8002 23.5421 20.4742 23.3984 19.8211 23.3984C18.9395 23.3984 18.6356 23.5993 17.9511 24.0828C17.2254 24.5959 16.5294 25.0389 15.4904 24.9935C14.4385 25.0711 13.5616 24.4315 13.0681 24.0826C12.3796 23.5959 12.0766 23.3985 11.1987 23.3985C10.5716 23.3985 10.177 23.5553 9.9072 23.5553C9.63884 23.5553 9.53447 23.3917 9.49428 23.2549C9.40443 22.9494 9.34789 22.5481 9.27745 22.4528C8.59007 22.3461 7.04002 22.0757 7.00053 21.3841C6.99575 21.2972 7.02322 21.2115 7.07767 21.1436C7.13213 21.0757 7.20974 21.0303 7.29561 21.0161C9.6086 20.6354 10.6504 18.2604 10.6937 18.1596C10.6962 18.1538 10.6989 18.1482 10.7016 18.1425C10.825 17.892 10.8526 17.6822 10.7835 17.5191C10.6156 17.1237 9.89021 16.9818 9.58503 16.8611C8.79673 16.5498 8.68703 16.192 8.73367 15.9469C8.81468 15.5202 9.45582 15.2576 9.83068 15.4332C10.1271 15.5722 10.3905 15.6425 10.6134 15.6425C10.7803 15.6425 10.8864 15.6025 10.9445 15.5703C10.8766 14.3758 10.7084 12.6688 11.1335 11.7155C12.2561 9.19855 14.6356 9.00296 15.3377 9.00296C15.3691 9.00296 15.6415 9 15.6738 9C17.4072 9 19.0727 9.89018 19.8861 11.7139C20.3108 12.6662 20.1437 14.3662 20.0754 15.5701C20.128 15.5991 20.2202 15.6346 20.3612 15.6412C20.5739 15.6317 20.8205 15.5618 21.0948 15.4332C21.2971 15.3386 21.5737 15.3514 21.7756 15.4351L21.7766 15.4355C22.0916 15.548 22.2898 15.775 22.2948 16.0295C22.3009 16.3535 22.0115 16.6333 21.4346 16.8611C21.3641 16.8888 21.2785 16.9161 21.1874 16.945C20.8618 17.0483 20.3697 17.2045 20.2362 17.5191C20.1671 17.6821 20.1945 17.8918 20.318 18.1423C20.3209 18.1479 20.3235 18.1537 20.3259 18.1594C20.3692 18.2601 21.4101 20.6345 23.7241 21.0159C23.9378 21.0511 24.0952 21.2778 23.9809 21.5431Z" fill="#D2926A"/>
</g>
</g>
</g>
</g>
</g>
<defs>
<clipPath id="clip0_6166_78029">
<rect width="32" height="32" fill="white" transform="translate(0 0.735352)"/>
</clipPath>
</defs>
</svg>
