<svg width="32" height="33" viewBox="0 0 32 33" fill="none" xmlns="http://www.w3.org/2000/svg">
<g id="linkedin (1) 4" clip-path="url(#clip0_6166_78041)">
<g id="Group">
<g id="Group_2">
<g id="Group_3">
<path id="Vector" d="M16 0.735352C7.16344 0.735352 0 7.89879 0 16.7354C0 25.5719 7.16344 32.7354 16 32.7354C24.8366 32.7354 32 25.5719 32 16.7354C32 7.89879 24.8366 0.735352 16 0.735352ZM16 31.2808C7.96675 31.2808 1.45456 24.7686 1.45456 16.7354C1.45456 8.7021 7.96675 2.18991 16 2.18991C24.0332 2.18991 30.5454 8.7021 30.5454 16.7354C30.5454 24.7686 24.0332 31.2808 16 31.2808Z" fill="#D2926A"/>
<g id="&#240;&#159;&#166;&#134; icon &#34;TikTok&#34;">
<path id="Vector_2" d="M22.9995 15.5613C21.6233 15.5646 20.281 15.1355 19.162 14.3345V19.9209C19.1616 20.9556 18.8453 21.9654 18.2555 22.8155C17.6657 23.6656 16.8304 24.3154 15.8613 24.6779C14.8922 25.0404 13.8356 25.0985 12.8326 24.8443C11.8297 24.59 10.9282 24.0357 10.2488 23.2553C9.56945 22.475 9.14449 21.5058 9.03078 20.4774C8.91707 19.449 9.12004 18.4104 9.61254 17.5005C10.105 16.5905 10.8636 15.8527 11.7868 15.3855C12.71 14.9183 13.7538 14.7441 14.7787 14.8862V17.696C14.3097 17.5484 13.8061 17.5529 13.3398 17.7086C12.8735 17.8644 12.4683 18.1635 12.1821 18.5633C11.896 18.9631 11.7435 19.4431 11.7464 19.9347C11.7493 20.4263 11.9074 20.9044 12.1983 21.3008C12.4891 21.6972 12.8978 21.9915 13.3659 22.1418C13.834 22.2921 14.3376 22.2906 14.8048 22.1375C15.272 21.9845 15.6789 21.6878 15.9674 21.2897C16.2559 20.8916 16.4113 20.4125 16.4113 19.9209V9H19.162C19.16 9.23229 19.1795 9.46426 19.2201 9.69299C19.3157 10.2036 19.5144 10.6893 19.8042 11.1205C20.0939 11.5516 20.4686 11.9191 20.9052 12.2005C21.5264 12.6113 22.2548 12.8302 22.9995 12.83V15.5613Z" fill="#D2926A"/>
</g>
</g>
</g>
</g>
</g>
<defs>
<clipPath id="clip0_6166_78041">
<rect width="32" height="32" fill="white" transform="translate(0 0.735352)"/>
</clipPath>
</defs>
</svg>
