<svg width="32" height="33" viewBox="0 0 32 33" fill="none" xmlns="http://www.w3.org/2000/svg">
<path d="M8.95735 10.0967L14.6526 17.7118L8.92139 23.9032H10.2113L15.229 18.4825L19.2831 23.9032H23.6726L17.6569 15.8598L22.9915 10.0967H21.7016L17.0806 15.089L13.3468 10.0967H8.95735ZM10.8542 11.0468H12.8707L21.7755 22.953H19.7589L10.8542 11.0468Z" fill="#D2926A"/>
<path d="M16 0.735352C7.16344 0.735352 0 7.89879 0 16.7354C0 25.5719 7.16344 32.7354 16 32.7354C24.8366 32.7354 32 25.5719 32 16.7354C32 7.89879 24.8366 0.735352 16 0.735352ZM16 31.2808C7.96675 31.2808 1.45456 24.7686 1.45456 16.7354C1.45456 8.7021 7.96675 2.18991 16 2.18991C24.0332 2.18991 30.5454 8.7021 30.5454 16.7354C30.5454 24.7686 24.0332 31.2808 16 31.2808Z" fill="#D2926A"/>
</svg>
