<svg width="32" height="33" viewBox="0 0 32 33" fill="none" xmlns="http://www.w3.org/2000/svg">
<g id="linkedin (1) 2" clip-path="url(#clip0_6166_78015)">
<g id="Group">
<g id="Group_2">
<g id="Group_3">
<path id="Vector" d="M16 0.735352C7.16344 0.735352 0 7.89879 0 16.7354C0 25.5719 7.16344 32.7354 16 32.7354C24.8366 32.7354 32 25.5719 32 16.7354C32 7.89879 24.8366 0.735352 16 0.735352ZM16 31.2808C7.96675 31.2808 1.45456 24.7686 1.45456 16.7354C1.45456 8.7021 7.96675 2.18991 16 2.18991C24.0332 2.18991 30.5454 8.7021 30.5454 16.7354C30.5454 24.7686 24.0332 31.2808 16 31.2808Z" fill="#D2926A"/>
<g id="&#240;&#159;&#166;&#134; icon &#34;YouTube&#34;">
<path id="Vector_2" d="M24.6239 11.9803C24.4169 11.2008 23.8069 10.5869 23.0325 10.3786C21.6288 10 16 10 16 10C16 10 10.3713 10 8.96752 10.3786C8.19308 10.5869 7.58314 11.2008 7.37613 11.9803C7 13.3931 7 16.3409 7 16.3409C7 16.3409 7 19.2887 7.37613 20.7015C7.58314 21.481 8.19308 22.0693 8.96752 22.2777C10.3713 22.6562 16 22.6562 16 22.6562C16 22.6562 21.6287 22.6562 23.0325 22.2777C23.8069 22.0693 24.4169 21.481 24.6239 20.7015C25 19.2887 25 16.3409 25 16.3409C25 16.3409 25 13.3931 24.6239 11.9803ZM14.1591 19.0173V13.6645L18.8636 16.341L14.1591 19.0173Z" fill="#D2926A"/>
</g>
</g>
</g>
</g>
</g>
<defs>
<clipPath id="clip0_6166_78015">
<rect width="32" height="32" fill="white" transform="translate(0 0.735352)"/>
</clipPath>
</defs>
</svg>
